<svg xmlns="http://www.w3.org/2000/svg" xmlns:xlink="http://www.w3.org/1999/xlink" width="500" zoomAndPan="magnify" viewBox="0 0 375 307.91998" height="400" preserveAspectRatio="xMidYMid meet" version="1.0"><defs><g/><clipPath id="f774609626"><rect x="0" width="359" y="0" height="289"/></clipPath></defs><g transform="matrix(1, 0, 0, 1, 8, 6)"><g clip-path="url(#f774609626)"><g fill="#ffffff" fill-opacity="1"><g transform="translate(0.852981, 273.881411)"><g><path d="M 7.328125 -266.328125 L 71.53125 -266.328125 C 74.570312 -266.328125 76.09375 -264.609375 76.09375 -261.171875 L 76.09375 -257.40625 C 76.09375 -253.050781 75.066406 -249.78125 73.015625 -247.59375 C 70.972656 -245.414062 68.101562 -244.328125 64.40625 -244.328125 L 52.703125 -244.328125 L 52.703125 -5.546875 C 52.703125 -1.847656 50.851562 0 47.15625 0 L 32.5 0 C 28.925781 0 27.140625 -1.847656 27.140625 -5.546875 L 27.140625 -244.328125 L 14.46875 -244.328125 C 6.675781 -244.328125 2.78125 -248.6875 2.78125 -257.40625 L 2.78125 -261.171875 C 2.78125 -264.609375 4.296875 -266.328125 7.328125 -266.328125 Z M 7.328125 -266.328125 "/></g></g></g><g fill="#ffffff" fill-opacity="1"><g transform="translate(79.324523, 273.881411)"><g><path d="M 9.515625 -28.34375 L 9.515625 -238.390625 C 9.515625 -247.367188 12.6875 -254.703125 19.03125 -260.390625 C 22.195312 -263.421875 26.125 -265.796875 30.8125 -267.515625 C 35.5 -269.234375 40.75 -270.09375 46.5625 -270.09375 C 58.320312 -270.09375 67.570312 -266.859375 74.3125 -260.390625 C 77.351562 -257.609375 79.664062 -254.269531 81.25 -250.375 C 82.832031 -246.476562 83.625 -242.484375 83.625 -238.390625 L 83.625 -28.34375 C 83.625 -19.882812 80.648438 -12.679688 74.703125 -6.734375 C 67.703125 0.128906 58.320312 3.5625 46.5625 3.5625 C 34.675781 3.5625 25.363281 0.191406 18.625 -6.546875 C 15.582031 -9.453125 13.300781 -12.816406 11.78125 -16.640625 C 10.269531 -20.472656 9.515625 -24.375 9.515625 -28.34375 Z M 35.078125 -237.59375 L 35.078125 -28.9375 C 35.078125 -26.03125 36.066406 -23.617188 38.046875 -21.703125 C 40.023438 -19.785156 42.929688 -18.828125 46.765625 -18.828125 C 50.460938 -18.828125 53.269531 -19.785156 55.1875 -21.703125 C 57.101562 -23.617188 58.0625 -26.03125 58.0625 -28.9375 L 58.0625 -237.59375 C 58.0625 -240.5 57.066406 -242.910156 55.078125 -244.828125 C 53.097656 -246.742188 50.257812 -247.703125 46.5625 -247.703125 C 42.738281 -247.703125 39.867188 -246.742188 37.953125 -244.828125 C 36.035156 -242.910156 35.078125 -240.5 35.078125 -237.59375 Z M 35.078125 -237.59375 "/></g></g></g><g fill="#ffffff" fill-opacity="1"><g transform="translate(172.261799, 273.881411)"><g><path d="M 46.375 3.765625 C 34.875 3.765625 25.820312 0.726562 19.21875 -5.34375 C 12.75 -11.03125 9.515625 -18.5625 9.515625 -27.9375 L 9.515625 -87.78125 C 9.515625 -90.425781 10.96875 -91.75 13.875 -91.75 L 25.5625 -91.75 C 27.9375 -91.75 29.984375 -91.21875 31.703125 -90.15625 C 33.953125 -88.707031 35.078125 -86.726562 35.078125 -84.21875 L 35.078125 -28.734375 C 35.078125 -25.828125 36.035156 -23.445312 37.953125 -21.59375 C 39.867188 -19.75 42.675781 -18.828125 46.375 -18.828125 C 50.195312 -18.828125 53.066406 -19.75 54.984375 -21.59375 C 56.898438 -23.445312 57.859375 -25.828125 57.859375 -28.734375 C 57.859375 -40.890625 56.769531 -52.613281 54.59375 -63.90625 C 52.414062 -75.195312 49.34375 -86.789062 45.375 -98.6875 C 43.132812 -105.289062 41.019531 -111.203125 39.03125 -116.421875 C 37.050781 -121.640625 35.269531 -126.296875 33.6875 -130.390625 C 23.78125 -155.097656 16.84375 -177.753906 12.875 -198.359375 C 10.5 -210.640625 9.3125 -224.046875 9.3125 -238.578125 C 9.3125 -247.703125 12.613281 -255.234375 19.21875 -261.171875 C 22.519531 -264.078125 26.445312 -266.320312 31 -267.90625 C 35.5625 -269.5 40.550781 -270.296875 45.96875 -270.296875 C 57.332031 -270.296875 66.445312 -267.253906 73.3125 -261.171875 C 80.050781 -255.234375 83.421875 -247.703125 83.421875 -238.578125 L 83.421875 -176.765625 C 83.421875 -174.117188 81.90625 -172.796875 78.875 -172.796875 L 67.375 -172.796875 C 65 -172.796875 62.816406 -173.457031 60.828125 -174.78125 C 58.847656 -176.101562 57.859375 -178.019531 57.859375 -180.53125 L 57.859375 -237.59375 C 57.859375 -240.5 56.867188 -242.910156 54.890625 -244.828125 C 52.910156 -246.742188 50.070312 -247.703125 46.375 -247.703125 C 42.675781 -247.703125 39.832031 -246.707031 37.84375 -244.71875 C 35.863281 -242.738281 34.875 -240.363281 34.875 -237.59375 C 34.875 -226.226562 35.960938 -215.226562 38.140625 -204.59375 C 40.328125 -193.96875 43.46875 -182.84375 47.5625 -171.21875 C 49.144531 -166.59375 50.925781 -161.632812 52.90625 -156.34375 C 54.882812 -151.0625 57 -145.515625 59.25 -139.703125 C 64.132812 -127.546875 68.257812 -115.65625 71.625 -104.03125 C 75 -92.40625 77.742188 -81.113281 79.859375 -70.15625 C 82.234375 -57.332031 83.421875 -43.257812 83.421875 -27.9375 C 83.421875 -18.6875 80.117188 -11.15625 73.515625 -5.34375 C 66.773438 0.726562 57.726562 3.765625 46.375 3.765625 Z M 46.375 3.765625 "/></g></g></g><g fill="#ffffff" fill-opacity="1"><g transform="translate(265.199076, 273.881411)"><g><path d="M 46.375 3.765625 C 34.875 3.765625 25.820312 0.726562 19.21875 -5.34375 C 12.75 -11.03125 9.515625 -18.5625 9.515625 -27.9375 L 9.515625 -87.78125 C 9.515625 -90.425781 10.96875 -91.75 13.875 -91.75 L 25.5625 -91.75 C 27.9375 -91.75 29.984375 -91.21875 31.703125 -90.15625 C 33.953125 -88.707031 35.078125 -86.726562 35.078125 -84.21875 L 35.078125 -28.734375 C 35.078125 -25.828125 36.035156 -23.445312 37.953125 -21.59375 C 39.867188 -19.75 42.675781 -18.828125 46.375 -18.828125 C 50.195312 -18.828125 53.066406 -19.75 54.984375 -21.59375 C 56.898438 -23.445312 57.859375 -25.828125 57.859375 -28.734375 C 57.859375 -40.890625 56.769531 -52.613281 54.59375 -63.90625 C 52.414062 -75.195312 49.34375 -86.789062 45.375 -98.6875 C 43.132812 -105.289062 41.019531 -111.203125 39.03125 -116.421875 C 37.050781 -121.640625 35.269531 -126.296875 33.6875 -130.390625 C 23.78125 -155.097656 16.84375 -177.753906 12.875 -198.359375 C 10.5 -210.640625 9.3125 -224.046875 9.3125 -238.578125 C 9.3125 -247.703125 12.613281 -255.234375 19.21875 -261.171875 C 22.519531 -264.078125 26.445312 -266.320312 31 -267.90625 C 35.5625 -269.5 40.550781 -270.296875 45.96875 -270.296875 C 57.332031 -270.296875 66.445312 -267.253906 73.3125 -261.171875 C 80.050781 -255.234375 83.421875 -247.703125 83.421875 -238.578125 L 83.421875 -176.765625 C 83.421875 -174.117188 81.90625 -172.796875 78.875 -172.796875 L 67.375 -172.796875 C 65 -172.796875 62.816406 -173.457031 60.828125 -174.78125 C 58.847656 -176.101562 57.859375 -178.019531 57.859375 -180.53125 L 57.859375 -237.59375 C 57.859375 -240.5 56.867188 -242.910156 54.890625 -244.828125 C 52.910156 -246.742188 50.070312 -247.703125 46.375 -247.703125 C 42.675781 -247.703125 39.832031 -246.707031 37.84375 -244.71875 C 35.863281 -242.738281 34.875 -240.363281 34.875 -237.59375 C 34.875 -226.226562 35.960938 -215.226562 38.140625 -204.59375 C 40.328125 -193.96875 43.46875 -182.84375 47.5625 -171.21875 C 49.144531 -166.59375 50.925781 -161.632812 52.90625 -156.34375 C 54.882812 -151.0625 57 -145.515625 59.25 -139.703125 C 64.132812 -127.546875 68.257812 -115.65625 71.625 -104.03125 C 75 -92.40625 77.742188 -81.113281 79.859375 -70.15625 C 82.234375 -57.332031 83.421875 -43.257812 83.421875 -27.9375 C 83.421875 -18.6875 80.117188 -11.15625 73.515625 -5.34375 C 66.773438 0.726562 57.726562 3.765625 46.375 3.765625 Z M 46.375 3.765625 "/></g></g></g></g></g></svg>